<?xml version="1.0" encoding="UTF-8"?>
<svg id="Layer_1" data-name="Layer 1" xmlns="http://www.w3.org/2000/svg" viewBox="0 0 1000 1000">
  <defs>
    <style>
      .cls-1 {
        fill: #112b3c;
      }

      .cls-2 {
        fill: #f66b0e;
        stroke: #f66b0e;
        stroke-miterlimit: 10;
        stroke-width: 20px;
      }
    </style>
  </defs>
  <g id="Layer_2" data-name="Layer 2">
    <rect class="cls-1" x="0" y="0" width="1000" height="1000" rx="500" ry="500"/>
  </g>
  <path class="cls-2" d="M552.33,756c27.48-4.11,52.74-14,75.32-30.37l6.29-4.41c28.77-20.17,49.15-50.18,57.27-84.36h0c.27-.67,.67-1.31,.8-2,6.08-33.12,1.62-64.76-14.26-94.45-14.56-27.24-37.56-45.65-64.72-59.3-33.64-16.9-70-24.63-106.61-31.59-20.57-3.91-41.48-6.56-61.13-14.32-9.66-3.81-19.47-7.84-25.87-16.66-8.55-11.78-7.72-28.89,1.78-41.99,9.32-12.84,22.07-21.27,36.72-26.55,29.18-10.52,57.97-7.06,85.89,4.7,19.45,8.2,35.77,20.54,44.45,40.73,1.51,3.5,3.42,2.24,5.61,1.45,24.71-8.98,49.4-17.99,74.13-26.9,10.48-3.77,15.29-15.91,10.21-25.81-6.69-13.02-15.01-25.01-25-35.93-27.53-30.11-61.81-48.9-100.89-59.42l-.51-.1c-37.79-7.39-76.64-7.56-114.5-.5l-1.33,.25c-4.23,.79-8.38,1.97-12.36,3.59-47,19.15-84.09,48.3-103.13,95.05-21.59,53-8.55,113.7,32.79,151.29,24.76,22.52,54.62,35.3,86.86,42.94,28.4,6.73,57.4,10.56,85.71,17.7,16.11,4.06,32.06,8.53,46.56,17.08,19.55,11.52,28.98,38.63,4.48,59.39-17.91,15.17-38.88,20.45-61.43,20.62-51.68,.39-92.49-21.59-123.89-61.9-2.85-3.66-4.57-3.71-8.08-1.19-25.03,18-50.14,35.88-75.38,53.59-3.45,2.42-3.43,3.89-1.04,7.09,33.89,45.37,77.27,77.52,131.46,94.57h0c35.81,7.36,72.43,10.04,108.94,7.98l4.86-.27Z"/>
</svg>